<svg width="31" height="31" viewBox="0 0 31 31" fill="none" xmlns="http://www.w3.org/2000/svg">
<path fill-rule="evenodd" clip-rule="evenodd" d="M3.875 15.5C3.875 14.965 4.30872 14.5312 4.84375 14.5312H26.1562C26.6913 14.5312 27.125 14.965 27.125 15.5C27.125 16.035 26.6913 16.4688 26.1562 16.4688H4.84375C4.30872 16.4688 3.875 16.035 3.875 15.5Z" fill="#EBEBEB"/>
<path d="M15.5 9.6875C16.5701 9.6875 17.4375 8.82005 17.4375 7.75C17.4375 6.67995 16.5701 5.8125 15.5 5.8125C14.4299 5.8125 13.5625 6.67995 13.5625 7.75C13.5625 8.82005 14.4299 9.6875 15.5 9.6875Z" fill="#EBEBEB"/>
<path d="M15.5 25.1875C16.5701 25.1875 17.4375 24.3201 17.4375 23.25C17.4375 22.1799 16.5701 21.3125 15.5 21.3125C14.4299 21.3125 13.5625 22.1799 13.5625 23.25C13.5625 24.3201 14.4299 25.1875 15.5 25.1875Z" fill="#EBEBEB"/>
</svg>
